# xmcd
#
# Track frame offsets:
#	150
#	15853
#	29741
#	44064
#	58639
#	72989
#	86116
#	101004
#	117188
#	130135
#	143663
#	156113
#	170141
#	181754
#	196199
#	210490
#	220333
#	230540
#	246604
#	260635
#	278119
#	292381
#	306696
#	319682
#
# Disc length: 4399 seconds
#
# Revision: 0
# Processed by: cddbd v1.5.2PL0 Copyright (c) Steve Scherf et al.
# Submitted via: audiograbber 1.83.01
#
DISCID=7b112d18
DTITLE=Various Artist - Full Swing Act 1
DYEAR=1900
DGENRE=Rock
TTITLE0=louis prima - jump, jive an wail
TTITLE1=colin james - breakin up the house
TTITLE2=big bad voodoo daddies - go daddy O
TTITLE3=benny goodman - stompin at the savoy
TTITLE4=lavay smith - oo poppa do
TTITLE5=louis jordan - five guys named moe
TTITLE6=joe jackson - we the cats shall hep ya
TTITLE7=glenn miller - in the mood
TTITLE8=johnny favourite orchestra - rootbeer and licorice
TTITLE9=duke ellington - it dont mean a thing if it aint got that swing
TTITLE10=big joe turner - flip flop and fly
TTITLE11=bobby darin - mack the knife
TTITLE12=harry connick jr. - recipe for love
TTITLE13=colin james - let's shout
TTITLE14=benny goodman - one o'clock jump
TTITLE15=squirell nut zippers - suits are pickin up the bill
TTITLE16=bette midler - boogie woogie bugle boy
TTITLE17=royal crown revue - hey pachuco
TTITLE18=duke ellington - jumpin at the woodside
TTITLE19=cherry poppin daddies - zoot suit riot
TTITLE20=glenn miller - pennsylvania 6-5000
TTITLE21=frank sinatra - come fly with me
TTITLE22=big rude jake - queer for cat
TTITLE23=the brian setzer orchestra - this cat's on a hot tin roof
EXTD=
EXTT0=
EXTT1=
EXTT2=
EXTT3=
EXTT4=
EXTT5=
EXTT6=
EXTT7=
EXTT8=
EXTT9=
EXTT10=
EXTT11=
EXTT12=
EXTT13=
EXTT14=
EXTT15=
EXTT16=
EXTT17=
EXTT18=
EXTT19=
EXTT20=
EXTT21=
EXTT22=
EXTT23=
PLAYORDER=
